<?xml version="1.0" encoding="utf-8"?>
<!-- Generator: Adobe Illustrator 27.2.0, SVG Export Plug-In . SVG Version: 6.00 Build 0)  -->
<svg version="1.1" id="Layer_1" xmlns="http://www.w3.org/2000/svg" xmlns:xlink="http://www.w3.org/1999/xlink" x="0px"
	y="0px" viewBox="0 0 150 60.1" style="enable-background:new 0 0 150 60.1;" xml:space="preserve">
	<style type="text/css">
		.Arched_x0020_Green {
			fill: url(#SVGID_1_);
			stroke: #FFFFFF;
			stroke-width: 0.25;
			stroke-miterlimit: 1;
		}

		.st0 {
			fill: #FAFDFF;
		}

		.st1 {
			fill: #FFFFFF;
		}
	</style>
	<linearGradient id="SVGID_1_" gradientUnits="userSpaceOnUse" x1="381" y1="315.1193" x2="381.7071" y2="314.4122">
		<stop offset="0" style="stop-color:#1EAB4B" />
		<stop offset="0.9831" style="stop-color:#19361A" />
	</linearGradient>
	<g>
		<g>
			<path class="st0" d="M5.2,41.5v-1.2c0.7,0,1.2,0,1.6-0.1c0.4,0,0.7-0.1,1-0.3c0.2-0.2,0.4-0.4,0.5-0.8c0.1-0.4,0.1-0.2,0.1-0.9
			V7.9c0-0.7,0-1.2-0.1-1.6C8.1,5.9,8,5.7,7.7,5.5c-0.2-0.2-0.5-0.3-1-0.3c-0.4,0-0.9-0.1-1.6-0.1V3.9h11.1v1.2
			c-0.7,0-1.2,0-1.6,0.1c-0.4,0-0.7,0.1-0.9,0.3c-0.2,0.2-0.4,0.4-0.5,0.8c-0.1,0.4-0.1,0.9-0.1,1.6v30.4c0,0.7,0,0.5,0.1,0.9
			c0.1,0.4,0.2,0.6,0.5,0.8c0.2,0.2,0.5,0.3,0.9,0.3c0.4,0,0.9,0.1,1.6,0.1v1.2H5.2z" />
			<path class="st0" d="M19.7,40.3c0.6,0,1.1,0,1.5-0.1c0.4,0,0.7-0.1,0.9-0.3c0.2-0.2,0.4-0.4,0.5-0.8c0.1-0.4,0.1-0.2,0.1-0.9V7.9
			c0-0.7,0-1.2-0.1-1.6c-0.1-0.4-0.3-0.6-0.5-0.8c-0.2-0.2-0.6-0.3-1-0.3c-0.4,0-0.9-0.1-1.5-0.1V3.9h13.5c1.7,0,3.4,0.1,5,0.4
			c1.6,0.3,3.1,0.8,4.4,1.5c1.3,0.7,2.3,1.7,3.1,3c0.8,1.3,1.2,2.9,1.2,4.8c0,2.4-0.7,4.3-2,5.6c-1.3,1.3-3.2,2.1-5.6,2.7
			c1.3,0.2,2.5,0.6,3.6,1.1c1.1,0.5,2.1,1.1,3,1.9c0.8,0.8,1.5,1.7,2,2.8c0.5,1.1,0.7,2.2,0.7,3.6c0,2-0.4,3.6-1.2,4.9
			c-0.8,1.3-1.9,2.4-3.2,3.2c-1.3,0.8-2.9,1.4-4.6,1.8c-1.7,0.4-3.4,0.5-5.1,0.5H19.7V40.3z M27.7,37.6c0.2,0.4,0.5,0.7,0.9,0.8
			c0.4,0.2,0.8,0.3,1.3,0.4c0.5,0.1,0.9,0.1,1.4,0.1h1.2c1.3,0,2.6-0.1,3.9-0.3c1.3-0.2,2.5-0.6,3.5-1.2c1-0.6,1.9-1.4,2.5-2.4
			c0.6-1,0.9-2.2,0.9-3.8c0-1.7-0.4-3.1-1.2-4.2c-0.8-1-1.8-1.8-3-2.4c-1.2-0.6-2.6-0.9-4.1-1.1c-1.5-0.2-3-0.3-4.4-0.3h-2.9V37.6z
			 M27.8,20.5h5.5c1.2,0,2.3-0.1,3.4-0.4c1.1-0.2,2-0.6,2.8-1.2c0.8-0.6,1.4-1.3,1.9-2.2c0.5-0.9,0.7-2,0.7-3.3
			c0-1.3-0.3-2.5-0.8-3.4C40.7,9.3,40,8.5,39.1,8c-0.9-0.5-1.9-0.9-3-1.1c-1.1-0.2-2.3-0.3-3.5-0.3c-0.3,0-0.7,0-1.1,0
			c-0.5,0-0.9,0-1.4,0c-0.5,0-0.9,0.1-1.3,0.2c-0.4,0.1-0.7,0.3-0.9,0.6V20.5z" />
			<path class="st0" d="M77.2,41.5H51v-1.2c1.2,0,1.9-0.2,2.2-0.5c0.3-0.3,0.5-1.1,0.5-2.2V7.9c0-1.2-0.1-1.9-0.5-2.3
			c-0.3-0.3-1.1-0.5-2.2-0.5V3.9h25.6l0.1,5.7h-1c-0.2-1.4-0.6-2.3-1.3-2.6c-0.7-0.3-1.7-0.5-3.1-0.5H59.8c-0.6,0-1,0.1-1.1,0.2
			c-0.1,0.1-0.1,0.5-0.1,1.1v12.7h11c0.6,0,1.1,0,1.6-0.1c0.5-0.1,0.8-0.2,1.1-0.4c0.3-0.2,0.5-0.5,0.7-0.8c0.2-0.4,0.3-0.9,0.3-1.5
			h1.4v8.4h-1.4c-0.1-0.7-0.2-1.2-0.3-1.6c-0.2-0.4-0.4-0.7-0.7-0.9c-0.3-0.2-0.7-0.3-1.1-0.4c-0.4-0.1-1-0.1-1.6-0.1h-11v14.5
			c0,0.3,0.1,0.6,0.3,0.8c0.2,0.2,0.5,0.3,0.7,0.3c0.3,0,0.6,0,0.9,0c0.3,0,0.6,0,0.8,0h9.5c0.9,0,1.7,0,2.4-0.1
			c0.7-0.1,1.3-0.3,1.8-0.6c0.5-0.3,1-0.7,1.4-1.2c0.4-0.5,0.8-1.2,1.2-2h0.9L77.2,41.5z" />
			<path class="st0" d="M104.2,41.5c-0.9-2-1.8-3.7-2.8-5.3c-0.9-1.6-1.9-3-3-4.4c-1.1-1.4-2.2-2.7-3.5-3.9c-1.3-1.3-2.7-2.6-4.3-3.9
			L86.5,24v13.6c0,0.6,0,1.1,0.1,1.5c0.1,0.4,0.2,0.6,0.4,0.8c0.2,0.2,0.5,0.3,0.9,0.3c0.4,0,0.9,0.1,1.5,0.1v1.2H78.9v-1.2
			c0.6,0,1,0,1.4-0.1c0.4-0.1,0.6-0.2,0.8-0.4c0.2-0.2,0.3-0.5,0.4-0.8c0.1-0.4,0.1-0.8,0.1-1.5V7.9c0-0.6,0-1.1-0.1-1.4
			c-0.1-0.4-0.2-0.6-0.4-0.8c-0.2-0.2-0.5-0.3-0.8-0.4c-0.4-0.1-0.8-0.1-1.4-0.1V3.9h13.7c1.7,0,3.3,0.2,4.9,0.5
			c1.6,0.4,2.9,0.9,4.1,1.7c1.2,0.8,2.1,1.8,2.8,3.1c0.7,1.3,1.1,2.8,1.1,4.7c0,1.4-0.3,2.6-0.8,3.7c-0.5,1.1-1.3,1.9-2.2,2.7
			c-0.9,0.7-2,1.3-3.2,1.7c-1.2,0.4-2.4,0.8-3.7,0.9c1.1,0.9,2,1.6,2.7,2.3c0.7,0.6,1.3,1.2,1.8,1.8c0.5,0.6,1,1.2,1.5,1.8
			c0.5,0.6,1.1,1.3,1.8,2.1c0.8,0.9,1.5,2,2.2,3.1c0.7,1.2,1.4,2.2,1.9,3.3c1.4,3,2.6,3,3.1,3v1.2H104.2z M86.5,21.3h2.8
			c1.4,0,2.7-0.1,4.1-0.4c1.3-0.2,2.5-0.7,3.6-1.3c1.1-0.6,1.9-1.4,2.6-2.5c0.7-1,1-2.3,1-3.9c0-1.4-0.3-2.5-0.8-3.4
			c-0.5-0.9-1.3-1.6-2.2-2.1c-0.9-0.5-1.9-0.8-3.1-1c-1.1-0.2-2.3-0.3-3.5-0.3h-1.1c-0.4,0-0.8,0-1.2,0.1c-0.4,0-0.8,0.1-1.2,0.3
			C87,7,86.7,7.2,86.5,7.5V21.3z" />
			<path class="st0" d="M143.6,30.3c-0.8,2.3-2,4.4-3.5,6.2c-1.6,1.8-3.5,3.2-5.7,4.2c-2.3,1-4.8,1.5-7.8,1.5c-2.9,0-5.5-0.5-7.8-1.5
			c-2.3-1-4.2-2.4-5.7-4.2c-1.6-1.8-2.7-3.8-3.5-6.2c-0.8-2.4-1.2-4.9-1.2-7.6c0-3.3,0.5-6.2,1.6-8.6c1-2.4,2.4-4.5,4.1-6.1
			c1.7-1.6,3.7-2.9,5.9-3.7c2.2-0.8,4.4-1.2,6.7-1.2c2.3,0,4.5,0.4,6.7,1.3c2.2,0.8,4.1,2,5.9,3.7c1.7,1.6,3.1,3.7,4.1,6.1
			c1,2.5,1.5,5.3,1.5,8.6C144.8,25.4,144.4,27.9,143.6,30.3 M138.9,16.8c-0.5-2-1.2-3.8-2.3-5.5c-1-1.6-2.4-3-4-4
			c-1.6-1-3.7-1.6-6-1.6c-2.4,0-4.4,0.5-6.1,1.6c-1.6,1-3,2.4-4,4c-1,1.6-1.8,3.4-2.2,5.4c-0.5,2-0.7,4-0.7,5.9c0,2,0.2,4,0.7,6
			c0.5,2,1.2,3.8,2.2,5.4c1,1.6,2.4,2.9,4,3.9c1.6,1,3.7,1.5,6.1,1.5c2.4,0,4.4-0.5,6.1-1.5c1.7-1,3-2.3,4-4c1-1.6,1.8-3.4,2.2-5.4
			c0.5-2,0.7-4,0.7-5.9C139.6,20.8,139.4,18.9,138.9,16.8" />
		</g>
		<g>
			<path class="st1" d="M7.2,47.4c0.6-0.1,1.4-0.2,2.4-0.2c1.2,0,2.1,0.3,2.7,0.8c0.5,0.5,0.8,1.2,0.8,2c0,0.9-0.3,1.6-0.7,2.1
			c-0.7,0.7-1.7,1.1-3,1.1c-0.4,0-0.7,0-1-0.1V57H7.2V47.4z M8.5,52.1c0.3,0.1,0.6,0.1,1,0.1c1.5,0,2.4-0.7,2.4-2.1
			c0-1.3-0.9-1.9-2.3-1.9c-0.5,0-1,0-1.2,0.1V52.1z" />
			<path class="st1" d="M16.1,47.3V53c0,2.2,1,3.1,2.3,3.1c1.4,0,2.4-0.9,2.4-3.1v-5.7H22v5.6c0,3-1.6,4.2-3.7,4.2
			c-2,0-3.5-1.1-3.5-4.1v-5.7H16.1z" />
			<path class="st1" d="M29.2,52.4h-3.8v3.5h4.2v1h-5.4v-9.7h5.2v1h-4v3.1h3.8V52.4z" />
			<path class="st1" d="M31.2,47.4c0.5-0.1,1.4-0.2,2.3-0.2c1.3,0,2.1,0.2,2.7,0.7c0.5,0.4,0.8,0.9,0.8,1.7c0,0.9-0.6,1.8-1.6,2.1v0
			c0.9,0.2,2,1,2,2.4c0,0.8-0.3,1.5-0.8,1.9c-0.7,0.6-1.8,0.9-3.3,0.9c-0.9,0-1.5-0.1-1.9-0.1V47.4z M32.5,51.4h1.1
			c1.3,0,2.1-0.7,2.1-1.6c0-1.1-0.9-1.6-2.1-1.6c-0.6,0-0.9,0-1.1,0.1V51.4z M32.5,56c0.2,0,0.6,0.1,1,0.1c1.3,0,2.5-0.5,2.5-1.9
			c0-1.3-1.1-1.9-2.5-1.9h-1V56z" />
			<path class="st1" d="M39,47.3h1.2v8.6h4.1v1H39V47.3z" />
			<path class="st1" d="M47.3,53.9l-1,3H45l3.3-9.7h1.5l3.3,9.7h-1.3l-1-3H47.3z M50.5,52.9l-0.9-2.8c-0.2-0.6-0.4-1.2-0.5-1.8h0
			c-0.1,0.6-0.3,1.2-0.5,1.8l-0.9,2.8H50.5z" />
		</g>
	</g>
</svg>